# xmcd
#
# Track frame offsets:
#	150
#	23408
#	50584
#	74697
#	96605
#	120736
#
# Disc length: 1787 seconds
#
# Revision: 0
# Processed by: cddbd v1.5.2PL0 Copyright (c) Steve Scherf et al.
# Submitted via: audiograbber 1.83.01
#
DISCID=5306f906
DTITLE=Basshunter - Every Morning - Hard2Beat Promo
DYEAR=2009
DGENRE=Dance
TTITLE0=Every Morning (Michael Mind Remix)
TTITLE1=Every Morning (PJ Harmony Remix)
TTITLE2=Every Morning (Headhunters Remix)
TTITLE3=Every Morning (Raindropz Remix)
TTITLE4=Every Morning (Ultra DJs Remix)
TTITLE5=Every Morning (Michael Mind Edit)
EXTD=
EXTT0=
EXTT1=
EXTT2=
EXTT3=
EXTT4=
EXTT5=
PLAYORDER=
